<?xml version="1.0" ?><svg height="512" preserveAspectRatio="xMidYMid" viewBox="0 0 512 512" width="512" xmlns="http://www.w3.org/2000/svg" xmlns:xlink="http://www.w3.org/1999/xlink"><defs><style>
      .cls-1 {
        fill: #db9834;
      }

      .cls-2 {
        fill: #000;
        opacity: 0.3;
      }

      .cls-2, .cls-3 {
        fill-rule: evenodd;
      }

      .cls-3 {
        fill: #fff;
      }
    </style></defs><g><circle class="cls-1" cx="256" cy="256" r="256"/><path class="cls-2" d="M149.544,128.769 L8.549,190.149 C2.972,211.161 0.000,233.233 0.000,256.000 C0.000,389.916 102.826,499.817 233.832,511.053 L370.329,257.884 L327.230,232.680 L277.000,252.000 L240.000,291.000 L307.000,214.000 L149.544,128.769 Z"/><path class="cls-3" d="M359.698,266.230 C359.698,266.230 341.790,276.837 315.071,292.072 L276.884,252.239 L314.650,215.953 C331.771,225.715 347.075,234.441 358.684,241.060 C385.819,256.532 359.698,266.230 359.698,266.230 ZM147.735,129.361 C151.997,126.934 159.158,127.295 171.101,134.104 C205.132,153.508 262.656,186.307 308.926,212.689 L271.792,248.002 L147.735,129.361 ZM142.803,379.365 C140.337,376.461 141.106,370.498 141.106,370.498 L141.106,148.287 C141.106,148.287 140.450,138.531 144.393,132.548 L267.549,253.087 L142.803,379.365 ZM309.750,294.710 C261.736,322.086 191.841,361.938 159.535,380.359 C154.594,383.176 151.000,384.154 148.394,383.996 L272.641,256.477 L309.750,294.710 Z"/></g></svg>